<svg xmlns="http://www.w3.org/2000/svg" xmlns:xlink="http://www.w3.org/1999/xlink" width="1080" zoomAndPan="magnify" viewBox="0 0 810 809.999993" height="1080" preserveAspectRatio="xMidYMid meet" version="1.2"><g id="fa488d1589"><path style=" stroke:none;fill-rule:nonzero;fill:#75d4ff;fill-opacity:1;" d="M 658.125 67.5 L 607.5 67.5 L 607.5 16.875 C 607.5 7.558594 599.941406 0 590.625 0 C 581.308594 0 573.75 7.558594 573.75 16.875 L 573.75 67.5 L 236.25 67.5 L 236.25 16.875 C 236.25 7.558594 228.691406 0 219.375 0 C 210.058594 0 202.5 7.558594 202.5 16.875 L 202.5 67.5 L 151.875 67.5 C 68.140625 67.5 0 135.640625 0 219.375 L 0 658.125 C 0 741.859375 68.140625 810 151.875 810 L 658.125 810 C 741.859375 810 810 741.859375 810 658.125 L 810 219.375 C 810 135.640625 741.859375 67.5 658.125 67.5 Z M 151.875 101.25 L 658.125 101.25 C 723.261719 101.25 776.25 154.238281 776.25 219.375 L 776.25 270 L 33.75 270 L 33.75 219.375 C 33.75 154.238281 86.738281 101.25 151.875 101.25 Z M 658.125 776.25 L 151.875 776.25 C 86.738281 776.25 33.75 723.261719 33.75 658.125 L 33.75 303.75 L 776.25 303.75 L 776.25 658.125 C 776.25 723.261719 723.261719 776.25 658.125 776.25 Z M 532.238281 472.90625 L 466.628906 472.90625 L 449.078125 405.574219 C 443.878906 385.761719 425.890625 371.621094 404.695312 371.214844 C 384.109375 371.621094 366.121094 385.730469 360.957031 405.574219 L 343.40625 472.871094 L 277.796875 472.871094 C 251.574219 472.871094 235.339844 493.898438 235.339844 513.40625 C 235.339844 531.460938 246.273438 548.707031 263.824219 558.460938 L 305.976562 581.882812 L 286.640625 634.601562 C 279.347656 654.546875 285.828125 676.550781 302.804688 689.34375 C 311.308594 695.757812 321.46875 698.929688 331.628906 698.929688 C 341.988281 698.929688 352.316406 695.585938 360.921875 688.972656 L 405.066406 654.851562 L 449.179688 688.972656 C 466.1875 702.136719 490.082031 702.269531 507.296875 689.34375 C 524.273438 676.550781 530.753906 654.546875 523.460938 634.601562 L 504.125 581.882812 L 546.242188 558.460938 C 563.828125 548.707031 574.761719 531.425781 574.761719 513.40625 C 574.761719 493.898438 558.527344 472.871094 532.304688 472.871094 Z M 529.773438 528.996094 L 462.410156 566.460938 L 491.671875 646.246094 C 493.796875 652.050781 491.839844 658.699219 486.910156 662.410156 C 481.847656 666.191406 474.796875 666.15625 469.765625 662.308594 L 405 612.226562 L 340.234375 662.308594 C 335.203125 666.191406 328.152344 666.257812 323.089844 662.410156 C 318.160156 658.699219 316.203125 652.050781 318.296875 646.246094 L 347.589844 566.425781 L 280.226562 528.964844 C 274.691406 525.890625 269.089844 519.851562 269.089844 513.40625 C 269.089844 511.582031 271.148438 506.621094 277.796875 506.621094 L 369.460938 506.621094 L 393.59375 414.078125 C 394.976562 408.8125 399.800781 405.035156 404.695312 404.933594 C 410.230469 405.035156 415.058594 408.78125 416.40625 414.046875 L 440.539062 506.585938 L 532.203125 506.585938 C 538.851562 506.585938 540.910156 511.546875 540.910156 513.371094 C 540.910156 519.851562 535.308594 525.859375 529.738281 528.929688 Z M 529.773438 528.996094 "/></g></svg>