<svg xmlns="http://www.w3.org/2000/svg" xmlns:xlink="http://www.w3.org/1999/xlink" width="1080" zoomAndPan="magnify" viewBox="0 0 810 809.999993" height="1080" preserveAspectRatio="xMidYMid meet" version="1.2"><g id="9656f80a04"><path style=" stroke:none;fill-rule:nonzero;fill:#75d4ff;fill-opacity:1;" d="M 641.25 810 L 168.75 810 C 75.703125 810 0 734.296875 0 641.25 L 0 328.183594 C 0 271.992188 27.808594 219.679688 74.386719 188.292969 L 310.601562 28.855469 C 367.941406 -9.820312 442.058594 -9.820312 499.398438 28.855469 L 735.648438 188.292969 C 782.191406 219.679688 810 271.957031 810 328.183594 L 810 641.25 C 810 734.296875 734.296875 810 641.25 810 Z M 405 67.398438 C 385.289062 67.398438 365.578125 73.203125 348.367188 84.847656 L 112.117188 244.25 C 84.171875 263.082031 67.5 294.433594 67.5 328.152344 L 67.5 641.214844 C 67.5 697.039062 112.925781 742.464844 168.75 742.464844 L 641.25 742.464844 C 697.074219 742.464844 742.5 697.039062 742.5 641.214844 L 742.5 328.183594 C 742.5 294.46875 725.828125 263.082031 697.917969 244.28125 L 461.632812 84.847656 C 444.421875 73.203125 424.710938 67.398438 405 67.398438 Z M 405 67.398438 "/></g></svg>