<svg xmlns="http://www.w3.org/2000/svg" xmlns:xlink="http://www.w3.org/1999/xlink" width="1080" zoomAndPan="magnify" viewBox="0 0 810 809.999993" height="1080" preserveAspectRatio="xMidYMid meet" version="1.2"><defs><clipPath id="90a1a5f912"><path d="M 11.726562 11.726562 L 798.476562 11.726562 L 798.476562 798.476562 L 11.726562 798.476562 Z M 11.726562 11.726562 "/></clipPath></defs><g id="7b33a5b48d"><g clip-rule="nonzero" clip-path="url(#90a1a5f912)"><path style=" stroke:none;fill-rule:nonzero;fill:#75d4ff;fill-opacity:1;" d="M 798.265625 486.925781 C 798.265625 477.882812 790.925781 470.539062 781.878906 470.539062 C 765.886719 470.539062 712.730469 478.339844 654.492188 508.65625 L 550.539062 404.863281 L 663.175781 292.324219 C 723.773438 231.761719 769.917969 156.710938 797.050781 73.730469 C 805.605469 37.683594 771.359375 3.957031 734.488281 13.429688 C 653.246094 40.074219 578.296875 86.152344 517.765625 146.617188 L 404.996094 259.320312 L 292.226562 146.617188 C 231.695312 86.152344 156.746094 40.074219 73.730469 12.9375 C 37.78125 4.449219 3.859375 38.597656 13.363281 75.304688 C 40.074219 156.679688 86.21875 231.726562 146.8125 292.292969 L 259.386719 404.800781 L 155.5 508.621094 C 97.261719 478.273438 44.105469 470.507812 28.113281 470.507812 C 19.066406 470.507812 11.726562 477.847656 11.726562 486.894531 C 11.726562 495.9375 19.066406 503.28125 28.113281 503.28125 C 28.964844 503.28125 103.914062 508.261719 177.359375 560.269531 L 26.703125 710.960938 C 6.777344 730.886719 6.777344 763.363281 26.703125 783.289062 C 46.660156 803.246094 79.105469 803.214844 99.03125 783.289062 L 249.652344 632.664062 C 301.664062 706.207031 306.679688 781.058594 306.679688 781.878906 C 306.679688 790.925781 314.019531 798.265625 323.0625 798.265625 C 332.109375 798.265625 339.449219 790.925781 339.449219 781.878906 C 339.449219 765.886719 331.652344 712.566406 301.105469 654.132812 L 404.960938 550.339844 L 508.917969 654.132812 C 478.375 712.566406 470.574219 765.886719 470.574219 781.878906 C 470.574219 790.925781 477.914062 798.265625 486.960938 798.265625 C 496.003906 798.265625 503.34375 790.925781 503.34375 781.878906 C 503.34375 781.027344 508.359375 706.207031 560.371094 632.664062 L 710.992188 783.289062 C 730.949219 803.214844 763.394531 803.214844 783.320312 783.289062 C 803.246094 763.363281 803.246094 730.886719 783.320312 710.960938 L 632.664062 560.304688 C 706.109375 508.292969 781.09375 503.3125 781.910156 503.3125 C 790.957031 503.3125 798.296875 495.972656 798.296875 486.925781 Z M 169.984375 269.121094 C 112.992188 212.195312 69.636719 141.636719 44.957031 66.683594 C 41.515625 54.921875 54.265625 41.976562 65.308594 44.597656 C 141.703125 69.636719 212.164062 112.925781 269.089844 169.789062 L 381.859375 282.460938 L 282.625 381.628906 L 170.015625 269.121094 Z M 75.863281 760.117188 C 68.683594 767.296875 57.050781 767.296875 49.875 760.117188 C 42.695312 752.941406 42.695312 741.304688 49.875 734.128906 L 203.25 580.753906 C 212.328125 588.621094 221.339844 597.664062 229.238281 606.742188 Z M 283.96875 624.929688 C 271.839844 606.25 257.355469 587.605469 239.722656 570.003906 C 222.09375 552.375 203.414062 537.886719 184.730469 525.761719 L 540.9375 169.789062 C 597.828125 112.925781 668.320312 69.601562 743.304688 44.925781 C 755.003906 41.515625 767.886719 54.167969 765.460938 65.046875 C 740.355469 141.601562 696.964844 212.164062 639.972656 269.121094 L 283.933594 624.898438 Z M 526.023438 624.929688 L 428.132812 527.203125 L 527.367188 428.035156 L 625.257812 525.761719 C 587.929688 549.03125 549.324219 587.636719 526.023438 624.929688 Z M 760.117188 734.128906 C 767.296875 741.304688 767.296875 752.941406 760.117188 760.117188 C 752.941406 767.296875 741.304688 767.296875 734.128906 760.117188 L 580.753906 606.742188 C 588.621094 597.664062 597.664062 588.621094 606.742188 580.753906 Z M 760.117188 734.128906 "/></g></g></svg>