<svg xmlns="http://www.w3.org/2000/svg" xmlns:xlink="http://www.w3.org/1999/xlink" width="1080" zoomAndPan="magnify" viewBox="0 0 810 809.999993" height="1080" preserveAspectRatio="xMidYMid meet" version="1.2"><g id="038aad5874"><path style=" stroke:none;fill-rule:nonzero;fill:#75d4ff;fill-opacity:1;" d="M 405 270 C 293.320312 270 202.5 360.820312 202.5 472.5 C 202.5 584.179688 293.320312 675 405 675 C 516.679688 675 607.5 584.179688 607.5 472.5 C 607.5 360.820312 516.679688 270 405 270 Z M 405 641.25 C 311.953125 641.25 236.25 565.546875 236.25 472.5 C 236.25 379.453125 311.953125 303.75 405 303.75 C 498.046875 303.75 573.75 379.453125 573.75 472.5 C 573.75 565.546875 498.046875 641.25 405 641.25 Z M 658.125 135 L 615.9375 135 L 540 33.75 C 524.136719 12.621094 498.890625 0 472.5 0 L 337.5 0 C 311.109375 0 285.863281 12.621094 270 33.75 L 194.0625 135 L 151.875 135 C 68.140625 135 0 203.140625 0 286.875 L 0 658.125 C 0 741.859375 68.140625 810 151.875 810 L 658.125 810 C 741.859375 810 810 741.859375 810 658.125 L 810 286.875 C 810 203.140625 741.859375 135 658.125 135 Z M 297 54 C 306.515625 41.308594 321.636719 33.75 337.5 33.75 L 472.5 33.75 C 488.363281 33.75 503.484375 41.308594 513 54 L 573.75 135 L 236.25 135 Z M 776.25 658.125 C 776.25 723.261719 723.261719 776.25 658.125 776.25 L 151.875 776.25 C 86.738281 776.25 33.75 723.261719 33.75 658.125 L 33.75 286.875 C 33.75 221.738281 86.738281 168.75 151.875 168.75 L 658.125 168.75 C 723.261719 168.75 776.25 221.738281 776.25 286.875 Z M 776.25 658.125 "/></g></svg>