<svg xmlns="http://www.w3.org/2000/svg" xmlns:xlink="http://www.w3.org/1999/xlink" width="1080" zoomAndPan="magnify" viewBox="0 0 810 809.999993" height="1080" preserveAspectRatio="xMidYMid meet" version="1.2"><defs><clipPath id="4e875a12b8"><path d="M 283.140625 364.769531 L 526.890625 364.769531 L 526.890625 608.519531 L 283.140625 608.519531 Z M 283.140625 364.769531 "/></clipPath></defs><g id="4907d02319"><path style=" stroke:none;fill-rule:nonzero;fill:#75d4ff;fill-opacity:1;" d="M 768.320312 172.632812 C 743.074219 162.101562 714.21875 167.839844 694.472656 187.515625 L 591.738281 295.007812 L 452.722656 120.960938 C 426.429688 94.636719 383.601562 94.667969 356.027344 122.378906 L 218.195312 295.078125 L 115.222656 188.527344 C 96.121094 169.527344 66.792969 163.550781 41.679688 173.914062 C 16.335938 184.375 0 208.84375 0 236.285156 L 0 573.75 C 0 666.796875 75.734375 742.5 168.75 742.5 L 641.25 742.5 C 734.296875 742.5 810 666.796875 810 573.75 L 810 235 C 810 207.597656 793.632812 183.09375 768.320312 172.632812 Z M 776.25 573.75 C 776.25 648.203125 715.703125 708.75 641.25 708.75 L 168.75 708.75 C 94.296875 708.75 33.75 648.203125 33.75 573.75 L 33.75 236.285156 C 32.636719 207.226562 71.347656 191.160156 91.160156 212.21875 L 207.257812 332.371094 C 213.839844 339.964844 226.5625 338.917969 232.570312 331.15625 L 381.140625 144.820312 C 394.300781 131.660156 415.699219 131.726562 427.613281 143.402344 L 577.429688 331.121094 C 583.4375 338.984375 596.296875 339.863281 602.808594 332.269531 L 718.605469 211.105469 C 738.585938 189.707031 777.230469 205.773438 776.25 234.96875 Z M 776.25 573.75 "/><g clip-rule="nonzero" clip-path="url(#4e875a12b8)"><path style=" stroke:none;fill-rule:nonzero;fill:#75d4ff;fill-opacity:1;" d="M 516.699219 476.472656 L 506.542969 476.472656 L 506.542969 374.925781 C 506.542969 369.339844 501.976562 364.769531 496.390625 364.769531 C 490.804688 364.769531 486.234375 369.339844 486.234375 374.925781 L 486.234375 476.472656 L 410.582031 476.472656 L 345.488281 375.230469 C 339.90625 366.699219 329.648438 362.839844 319.796875 365.683594 C 310.050781 368.527344 303.449219 377.363281 303.449219 387.617188 L 303.449219 476.472656 L 293.292969 476.472656 C 287.707031 476.472656 283.140625 481.042969 283.140625 486.628906 C 283.140625 492.214844 287.707031 496.78125 293.292969 496.78125 L 303.449219 496.78125 L 303.449219 598.332031 C 303.449219 603.914062 308.019531 608.484375 313.605469 608.484375 C 319.1875 608.484375 323.757812 603.914062 323.757812 598.332031 L 323.757812 496.78125 L 399.410156 496.78125 L 464.503906 598.027344 C 468.769531 604.726562 475.980469 608.484375 483.59375 608.484375 C 485.726562 608.484375 487.960938 608.179688 490.09375 607.570312 C 499.84375 604.726562 506.441406 595.894531 506.441406 585.636719 L 506.441406 496.78125 L 516.597656 496.78125 C 522.183594 496.78125 526.753906 492.214844 526.753906 486.628906 C 526.753906 481.042969 522.183594 476.472656 516.597656 476.472656 Z M 323.757812 476.472656 L 323.757812 387.617188 C 323.757812 387.617188 323.757812 385.792969 325.585938 385.183594 C 327.414062 384.574219 328.125 385.792969 328.429688 386.199219 L 386.414062 476.472656 Z M 486.234375 585.636719 C 486.234375 585.636719 486.234375 587.464844 484.40625 588.074219 C 482.578125 588.683594 481.867188 587.464844 481.5625 587.058594 L 423.578125 496.78125 L 486.234375 496.78125 Z M 486.234375 585.636719 "/></g></g></svg>